<mxfile host="65bd71144e">
    <diagram id="qODrm7nOM8ZQ55vKxSGn" name="Page-1">
        <mxGraphModel dx="1057" dy="368" grid="1" gridSize="10" guides="1" tooltips="1" connect="1" arrows="1" fold="1" page="1" pageScale="1" pageWidth="850" pageHeight="1100" math="0" shadow="0">
            <root>
                <mxCell id="0"/>
                <mxCell id="1" parent="0"/>
                <mxCell id="36" value="" style="shape=partialRectangle;whiteSpace=wrap;html=1;bottom=0;top=0;fillColor=none;" parent="1" vertex="1">
                    <mxGeometry x="173" y="67.5" width="120" height="202.5" as="geometry"/>
                </mxCell>
                <mxCell id="37" value="" style="shape=partialRectangle;whiteSpace=wrap;html=1;bottom=0;top=0;fillColor=none;" parent="1" vertex="1">
                    <mxGeometry x="425" y="67.5" width="120" height="200" as="geometry"/>
                </mxCell>
                <mxCell id="154" value="" style="rounded=1;whiteSpace=wrap;html=1;" parent="1" vertex="1">
                    <mxGeometry x="590" y="77.5" width="170" height="102.5" as="geometry"/>
                </mxCell>
                <mxCell id="52" value="" style="shape=partialRectangle;whiteSpace=wrap;html=1;bottom=0;top=0;fillColor=none;" parent="1" vertex="1">
                    <mxGeometry x="690" y="285" width="120" height="202.5" as="geometry"/>
                </mxCell>
                <mxCell id="64" value="" style="rounded=1;whiteSpace=wrap;html=1;" parent="1" vertex="1">
                    <mxGeometry x="710" y="300" width="80" height="35" as="geometry"/>
                </mxCell>
                <mxCell id="42" value="" style="shape=partialRectangle;whiteSpace=wrap;html=1;bottom=0;top=0;fillColor=none;" parent="1" vertex="1">
                    <mxGeometry x="375" y="278.75" width="120" height="200" as="geometry"/>
                </mxCell>
                <mxCell id="41" value="" style="shape=partialRectangle;whiteSpace=wrap;html=1;bottom=0;top=0;fillColor=none;" parent="1" vertex="1">
                    <mxGeometry x="180" y="277.5" width="120" height="202.5" as="geometry"/>
                </mxCell>
                <mxCell id="3" value="" style="rounded=1;whiteSpace=wrap;html=1;" parent="1" vertex="1">
                    <mxGeometry x="195" y="92.5" width="80" height="35" as="geometry"/>
                </mxCell>
                <mxCell id="4" value="$1000" style="rounded=1;whiteSpace=wrap;html=1;" parent="1" vertex="1">
                    <mxGeometry x="180" y="210" width="110" height="50" as="geometry"/>
                </mxCell>
                <mxCell id="5" value="Current Rate" style="text;html=1;strokeColor=none;fillColor=none;align=center;verticalAlign=middle;whiteSpace=wrap;rounded=0;" parent="1" vertex="1">
                    <mxGeometry x="90" y="92.5" width="80" height="40" as="geometry"/>
                </mxCell>
                <mxCell id="6" value="Conversion" style="text;html=1;strokeColor=none;fillColor=none;align=center;verticalAlign=middle;whiteSpace=wrap;rounded=0;" parent="1" vertex="1">
                    <mxGeometry x="88" y="220" width="60" height="30" as="geometry"/>
                </mxCell>
                <mxCell id="8" value="Time series" style="text;html=1;strokeColor=none;fillColor=none;align=center;verticalAlign=middle;whiteSpace=wrap;rounded=0;" parent="1" vertex="1">
                    <mxGeometry x="75" y="620" width="60" height="30" as="geometry"/>
                </mxCell>
                <mxCell id="9" value="AUD" style="text;html=1;strokeColor=none;fillColor=none;align=center;verticalAlign=middle;whiteSpace=wrap;rounded=0;" parent="1" vertex="1">
                    <mxGeometry x="210" y="95" width="50" height="30" as="geometry"/>
                </mxCell>
                <mxCell id="12" value="USD" style="rounded=1;whiteSpace=wrap;html=1;" parent="1" vertex="1">
                    <mxGeometry x="440" y="85" width="100" height="40" as="geometry"/>
                </mxCell>
                <mxCell id="13" value="1 AUD = 0.64 USD" style="text;html=1;strokeColor=none;fillColor=none;align=center;verticalAlign=middle;whiteSpace=wrap;rounded=0;" parent="1" vertex="1">
                    <mxGeometry x="565" y="92.5" width="210" height="30" as="geometry"/>
                </mxCell>
                <mxCell id="14" value="1 USD = 1.56 AUD" style="text;html=1;strokeColor=none;fillColor=none;align=center;verticalAlign=middle;whiteSpace=wrap;rounded=0;" parent="1" vertex="1">
                    <mxGeometry x="570" y="140" width="210" height="30" as="geometry"/>
                </mxCell>
                <mxCell id="15" value="$640" style="rounded=1;whiteSpace=wrap;html=1;" parent="1" vertex="1">
                    <mxGeometry x="430" y="208.75" width="110" height="50" as="geometry"/>
                </mxCell>
                <mxCell id="25" value="" style="shape=crossbar;whiteSpace=wrap;html=1;rounded=1;" parent="1" vertex="1">
                    <mxGeometry x="150" y="265" width="410" height="20" as="geometry"/>
                </mxCell>
                <mxCell id="27" value="" style="shape=crossbar;whiteSpace=wrap;html=1;rounded=1;" parent="1" vertex="1">
                    <mxGeometry x="150" y="480" width="400" height="20" as="geometry"/>
                </mxCell>
                <mxCell id="28" value="$1560" style="rounded=1;whiteSpace=wrap;html=1;" parent="1" vertex="1">
                    <mxGeometry x="375" y="390" width="110" height="50" as="geometry"/>
                </mxCell>
                <mxCell id="29" value="$1000" style="rounded=1;whiteSpace=wrap;html=1;" parent="1" vertex="1">
                    <mxGeometry x="185" y="390" width="110" height="50" as="geometry"/>
                </mxCell>
                <mxCell id="31" value="USD" style="rounded=1;whiteSpace=wrap;html=1;" parent="1" vertex="1">
                    <mxGeometry x="185" y="300" width="100" height="40" as="geometry"/>
                </mxCell>
                <mxCell id="33" value="" style="rounded=1;whiteSpace=wrap;html=1;" parent="1" vertex="1">
                    <mxGeometry x="390" y="297.5" width="80" height="35" as="geometry"/>
                </mxCell>
                <mxCell id="32" value="AUD" style="text;html=1;strokeColor=none;fillColor=none;align=center;verticalAlign=middle;whiteSpace=wrap;rounded=0;" parent="1" vertex="1">
                    <mxGeometry x="405" y="300" width="60" height="30" as="geometry"/>
                </mxCell>
                <mxCell id="34" value="" style="shape=flexArrow;endArrow=classic;startArrow=classic;html=1;width=14;endSize=7.36;entryX=0;entryY=0.5;entryDx=0;entryDy=0;" parent="1" target="15" edge="1">
                    <mxGeometry width="100" height="100" relative="1" as="geometry">
                        <mxPoint x="300" y="234" as="sourcePoint"/>
                        <mxPoint x="420" y="235" as="targetPoint"/>
                        <Array as="points"/>
                    </mxGeometry>
                </mxCell>
                <mxCell id="35" value="" style="shape=flexArrow;endArrow=classic;startArrow=classic;html=1;width=19;endSize=9.57;exitX=1.041;exitY=0.215;exitDx=0;exitDy=0;entryX=0.008;entryY=0.218;entryDx=0;entryDy=0;entryPerimeter=0;exitPerimeter=0;" parent="1" source="36" target="37" edge="1">
                    <mxGeometry width="100" height="100" relative="1" as="geometry">
                        <mxPoint x="290" y="109.5" as="sourcePoint"/>
                        <mxPoint x="390" y="109.5" as="targetPoint"/>
                        <Array as="points"/>
                    </mxGeometry>
                </mxCell>
                <mxCell id="40" value="Scenario 1: After&amp;nbsp; clicking top arrow" style="text;html=1;strokeColor=none;fillColor=none;align=center;verticalAlign=middle;whiteSpace=wrap;rounded=0;" parent="1" vertex="1">
                    <mxGeometry x="40" y="332.5" width="130" height="80" as="geometry"/>
                </mxCell>
                <mxCell id="45" value="Scenario 2: After&amp;nbsp; clicking bottom arrow" style="text;html=1;strokeColor=none;fillColor=none;align=center;verticalAlign=middle;whiteSpace=wrap;rounded=0;" parent="1" vertex="1">
                    <mxGeometry x="560" y="330" width="130" height="80" as="geometry"/>
                </mxCell>
                <mxCell id="46" value="" style="shape=partialRectangle;whiteSpace=wrap;html=1;bottom=0;top=0;fillColor=none;" parent="1" vertex="1">
                    <mxGeometry x="180" y="277.5" width="120" height="202.5" as="geometry"/>
                </mxCell>
                <mxCell id="47" value="USD" style="rounded=1;whiteSpace=wrap;html=1;" parent="1" vertex="1">
                    <mxGeometry x="185" y="300" width="100" height="40" as="geometry"/>
                </mxCell>
                <mxCell id="48" value="$1000" style="rounded=1;whiteSpace=wrap;html=1;" parent="1" vertex="1">
                    <mxGeometry x="185" y="390" width="110" height="50" as="geometry"/>
                </mxCell>
                <mxCell id="49" value="" style="shape=partialRectangle;whiteSpace=wrap;html=1;bottom=0;top=0;fillColor=none;" parent="1" vertex="1">
                    <mxGeometry x="885" y="286.25" width="120" height="200" as="geometry"/>
                </mxCell>
                <mxCell id="50" value="$1000" style="rounded=1;whiteSpace=wrap;html=1;" parent="1" vertex="1">
                    <mxGeometry x="885" y="397.5" width="110" height="50" as="geometry"/>
                </mxCell>
                <mxCell id="51" value="AUD" style="text;html=1;strokeColor=none;fillColor=none;align=center;verticalAlign=middle;whiteSpace=wrap;rounded=0;" parent="1" vertex="1">
                    <mxGeometry x="720" y="305" width="60" height="30" as="geometry"/>
                </mxCell>
                <mxCell id="53" value="USD" style="rounded=1;whiteSpace=wrap;html=1;" parent="1" vertex="1">
                    <mxGeometry x="895" y="300" width="100" height="40" as="geometry"/>
                </mxCell>
                <mxCell id="54" value="$640" style="rounded=1;whiteSpace=wrap;html=1;" parent="1" vertex="1">
                    <mxGeometry x="695" y="397.5" width="110" height="50" as="geometry"/>
                </mxCell>
                <mxCell id="55" value="" style="shape=crossbar;whiteSpace=wrap;html=1;rounded=1;" parent="1" vertex="1">
                    <mxGeometry x="630" y="258.75" width="420" height="20" as="geometry"/>
                </mxCell>
                <mxCell id="62" value="" style="shape=crossbar;whiteSpace=wrap;html=1;rounded=1;" parent="1" vertex="1">
                    <mxGeometry x="640" y="484.75" width="420" height="20" as="geometry"/>
                </mxCell>
                <mxCell id="110" value="29/09/2023" style="rounded=0;whiteSpace=wrap;html=1;" parent="1" vertex="1">
                    <mxGeometry x="430" y="610" width="120" height="60" as="geometry"/>
                </mxCell>
                <mxCell id="111" value="30/09/2023" style="rounded=0;whiteSpace=wrap;html=1;" parent="1" vertex="1">
                    <mxGeometry x="550" y="610" width="120" height="60" as="geometry"/>
                </mxCell>
                <mxCell id="112" value="01/10/2023" style="rounded=0;whiteSpace=wrap;html=1;" parent="1" vertex="1">
                    <mxGeometry x="670" y="610" width="120" height="60" as="geometry"/>
                </mxCell>
                <mxCell id="114" value="27/09/2023" style="rounded=0;whiteSpace=wrap;html=1;" parent="1" vertex="1">
                    <mxGeometry x="190" y="610" width="120" height="60" as="geometry"/>
                </mxCell>
                <mxCell id="116" value="28/09/2023" style="rounded=0;whiteSpace=wrap;html=1;" parent="1" vertex="1">
                    <mxGeometry x="310" y="610" width="120" height="60" as="geometry"/>
                </mxCell>
                <mxCell id="117" value="" style="triangle;whiteSpace=wrap;html=1;direction=west;" parent="1" vertex="1">
                    <mxGeometry x="135" y="620" width="30" height="40" as="geometry"/>
                </mxCell>
                <mxCell id="119" value="24/09/2023" style="rounded=0;whiteSpace=wrap;html=1;" parent="1" vertex="1">
                    <mxGeometry x="425" y="702" width="120" height="60" as="geometry"/>
                </mxCell>
                <mxCell id="120" value="25/09/2023" style="rounded=0;whiteSpace=wrap;html=1;" parent="1" vertex="1">
                    <mxGeometry x="545" y="702" width="120" height="60" as="geometry"/>
                </mxCell>
                <mxCell id="121" value="26/09/2023" style="rounded=0;whiteSpace=wrap;html=1;" parent="1" vertex="1">
                    <mxGeometry x="665" y="702" width="120" height="60" as="geometry"/>
                </mxCell>
                <mxCell id="122" value="22/09/2023" style="rounded=0;whiteSpace=wrap;html=1;" parent="1" vertex="1">
                    <mxGeometry x="185" y="702" width="120" height="60" as="geometry"/>
                </mxCell>
                <mxCell id="123" value="23/09/2023" style="rounded=0;whiteSpace=wrap;html=1;" parent="1" vertex="1">
                    <mxGeometry x="305" y="702" width="120" height="60" as="geometry"/>
                </mxCell>
                <mxCell id="124" value="Date picker" style="rounded=1;whiteSpace=wrap;html=1;" parent="1" vertex="1">
                    <mxGeometry x="165" y="550" width="200" height="40" as="geometry"/>
                </mxCell>
                <mxCell id="125" value="" style="shape=crossbar;whiteSpace=wrap;html=1;rounded=1;" parent="1" vertex="1">
                    <mxGeometry x="110" y="670" width="800" height="20" as="geometry"/>
                </mxCell>
                <mxCell id="126" value="" style="shape=table;html=1;whiteSpace=wrap;startSize=0;container=1;collapsible=0;childLayout=tableLayout;columnLines=0;rowLines=0;" parent="1" vertex="1">
                    <mxGeometry x="290" y="850" width="220" height="120" as="geometry"/>
                </mxCell>
                <mxCell id="127" value="" style="shape=tableRow;horizontal=0;startSize=0;swimlaneHead=0;swimlaneBody=0;top=0;left=0;bottom=0;right=0;collapsible=0;dropTarget=0;fillColor=none;points=[[0,0.5],[1,0.5]];portConstraint=eastwest;" parent="126" vertex="1">
                    <mxGeometry width="220" height="40" as="geometry"/>
                </mxCell>
                <mxCell id="128" value="01/07/2023" style="shape=partialRectangle;html=1;whiteSpace=wrap;connectable=0;fillColor=none;top=0;left=0;bottom=0;right=0;overflow=hidden;fontSize=12;" parent="127" vertex="1">
                    <mxGeometry width="73" height="40" as="geometry">
                        <mxRectangle width="73" height="40" as="alternateBounds"/>
                    </mxGeometry>
                </mxCell>
                <mxCell id="129" value="" style="shape=partialRectangle;html=1;whiteSpace=wrap;connectable=0;fillColor=none;top=0;left=0;bottom=0;right=0;overflow=hidden;fontSize=12;" parent="127" vertex="1">
                    <mxGeometry x="73" width="77" height="40" as="geometry">
                        <mxRectangle width="77" height="40" as="alternateBounds"/>
                    </mxGeometry>
                </mxCell>
                <mxCell id="130" value="" style="shape=partialRectangle;html=1;whiteSpace=wrap;connectable=0;fillColor=none;top=0;left=0;bottom=0;right=0;overflow=hidden;fontSize=12;" parent="127" vertex="1">
                    <mxGeometry x="150" width="70" height="40" as="geometry">
                        <mxRectangle width="70" height="40" as="alternateBounds"/>
                    </mxGeometry>
                </mxCell>
                <mxCell id="131" value="" style="shape=tableRow;horizontal=0;startSize=0;swimlaneHead=0;swimlaneBody=0;top=0;left=0;bottom=0;right=0;collapsible=0;dropTarget=0;fillColor=none;points=[[0,0.5],[1,0.5]];portConstraint=eastwest;" parent="126" vertex="1">
                    <mxGeometry y="40" width="220" height="40" as="geometry"/>
                </mxCell>
                <mxCell id="132" value="" style="shape=partialRectangle;html=1;whiteSpace=wrap;connectable=0;fillColor=none;top=0;left=0;bottom=0;right=0;overflow=hidden;fontSize=12;" parent="131" vertex="1">
                    <mxGeometry width="73" height="40" as="geometry">
                        <mxRectangle width="73" height="40" as="alternateBounds"/>
                    </mxGeometry>
                </mxCell>
                <mxCell id="133" value="01/10/2023" style="shape=partialRectangle;html=1;whiteSpace=wrap;connectable=0;fillColor=none;top=0;left=0;bottom=0;right=0;overflow=hidden;fontSize=12;" parent="131" vertex="1">
                    <mxGeometry x="73" width="77" height="40" as="geometry">
                        <mxRectangle width="77" height="40" as="alternateBounds"/>
                    </mxGeometry>
                </mxCell>
                <mxCell id="134" value="" style="shape=partialRectangle;html=1;whiteSpace=wrap;connectable=0;fillColor=none;top=0;left=0;bottom=0;right=0;overflow=hidden;fontSize=12;" parent="131" vertex="1">
                    <mxGeometry x="150" width="70" height="40" as="geometry">
                        <mxRectangle width="70" height="40" as="alternateBounds"/>
                    </mxGeometry>
                </mxCell>
                <mxCell id="135" value="" style="shape=tableRow;horizontal=0;startSize=0;swimlaneHead=0;swimlaneBody=0;top=0;left=0;bottom=0;right=0;collapsible=0;dropTarget=0;fillColor=none;points=[[0,0.5],[1,0.5]];portConstraint=eastwest;" parent="126" vertex="1">
                    <mxGeometry y="80" width="220" height="40" as="geometry"/>
                </mxCell>
                <mxCell id="136" value="" style="shape=partialRectangle;html=1;whiteSpace=wrap;connectable=0;fillColor=none;top=0;left=0;bottom=0;right=0;overflow=hidden;fontSize=12;" parent="135" vertex="1">
                    <mxGeometry width="73" height="40" as="geometry">
                        <mxRectangle width="73" height="40" as="alternateBounds"/>
                    </mxGeometry>
                </mxCell>
                <mxCell id="137" value="" style="shape=partialRectangle;html=1;whiteSpace=wrap;connectable=0;fillColor=none;top=0;left=0;bottom=0;right=0;overflow=hidden;fontSize=12;" parent="135" vertex="1">
                    <mxGeometry x="73" width="77" height="40" as="geometry">
                        <mxRectangle width="77" height="40" as="alternateBounds"/>
                    </mxGeometry>
                </mxCell>
                <mxCell id="138" value="" style="shape=partialRectangle;html=1;whiteSpace=wrap;connectable=0;fillColor=none;top=0;left=0;bottom=0;right=0;overflow=hidden;fontSize=12;" parent="135" vertex="1">
                    <mxGeometry x="150" width="70" height="40" as="geometry">
                        <mxRectangle width="70" height="40" as="alternateBounds"/>
                    </mxGeometry>
                </mxCell>
                <mxCell id="139" value="" style="triangle;whiteSpace=wrap;html=1;direction=east;" parent="1" vertex="1">
                    <mxGeometry x="805" y="712" width="30" height="40" as="geometry"/>
                </mxCell>
                <mxCell id="140" value="" style="triangle;whiteSpace=wrap;html=1;direction=west;" parent="1" vertex="1">
                    <mxGeometry x="135" y="620" width="30" height="40" as="geometry"/>
                </mxCell>
                <mxCell id="141" value="27/09/2023" style="rounded=0;whiteSpace=wrap;html=1;" parent="1" vertex="1">
                    <mxGeometry x="190" y="610" width="120" height="60" as="geometry"/>
                </mxCell>
                <mxCell id="142" value="28/09/2023" style="rounded=0;whiteSpace=wrap;html=1;" parent="1" vertex="1">
                    <mxGeometry x="310" y="610" width="120" height="60" as="geometry"/>
                </mxCell>
                <mxCell id="143" value="" style="triangle;whiteSpace=wrap;html=1;direction=west;" parent="1" vertex="1">
                    <mxGeometry x="135" y="620" width="30" height="40" as="geometry"/>
                </mxCell>
                <mxCell id="144" value="27/09/2023" style="rounded=0;whiteSpace=wrap;html=1;" parent="1" vertex="1">
                    <mxGeometry x="190" y="610" width="120" height="60" as="geometry"/>
                </mxCell>
                <mxCell id="145" value="28/09/2023" style="rounded=0;whiteSpace=wrap;html=1;" parent="1" vertex="1">
                    <mxGeometry x="310" y="610" width="120" height="60" as="geometry"/>
                </mxCell>
                <mxCell id="146" value="30/09/2023" style="rounded=0;whiteSpace=wrap;html=1;" parent="1" vertex="1">
                    <mxGeometry x="550" y="610" width="120" height="60" as="geometry"/>
                </mxCell>
                <mxCell id="147" value="" style="triangle;whiteSpace=wrap;html=1;direction=west;" parent="1" vertex="1">
                    <mxGeometry x="120" y="1000" width="30" height="40" as="geometry"/>
                </mxCell>
                <mxCell id="148" value="01/07/2023" style="rounded=0;whiteSpace=wrap;html=1;" parent="1" vertex="1">
                    <mxGeometry x="175" y="990" width="120" height="60" as="geometry"/>
                </mxCell>
                <mxCell id="149" value="02/07/2023" style="rounded=0;whiteSpace=wrap;html=1;" parent="1" vertex="1">
                    <mxGeometry x="295" y="990" width="120" height="60" as="geometry"/>
                </mxCell>
                <mxCell id="151" value="3..." style="rounded=0;whiteSpace=wrap;html=1;" parent="1" vertex="1">
                    <mxGeometry x="415" y="990" width="120" height="60" as="geometry"/>
                </mxCell>
                <mxCell id="152" value="5...." style="rounded=0;whiteSpace=wrap;html=1;" parent="1" vertex="1">
                    <mxGeometry x="655" y="990" width="120" height="60" as="geometry"/>
                </mxCell>
                <mxCell id="153" value="4..." style="rounded=0;whiteSpace=wrap;html=1;" parent="1" vertex="1">
                    <mxGeometry x="535" y="990" width="120" height="60" as="geometry"/>
                </mxCell>
                <mxCell id="155" value="" style="triangle;whiteSpace=wrap;html=1;direction=west;" parent="1" vertex="1">
                    <mxGeometry x="118" y="1073" width="30" height="40" as="geometry"/>
                </mxCell>
                <mxCell id="156" value="28/09/2023" style="rounded=0;whiteSpace=wrap;html=1;" parent="1" vertex="1">
                    <mxGeometry x="173" y="1063" width="120" height="60" as="geometry"/>
                </mxCell>
                <mxCell id="157" value="28/09/2023" style="rounded=0;whiteSpace=wrap;html=1;" parent="1" vertex="1">
                    <mxGeometry x="293" y="1063" width="120" height="60" as="geometry"/>
                </mxCell>
                <mxCell id="158" value="30/09/2023" style="rounded=0;whiteSpace=wrap;html=1;" parent="1" vertex="1">
                    <mxGeometry x="413" y="1063" width="120" height="60" as="geometry"/>
                </mxCell>
                <mxCell id="159" value="today" style="rounded=0;whiteSpace=wrap;html=1;" parent="1" vertex="1">
                    <mxGeometry x="653" y="1063" width="120" height="60" as="geometry"/>
                </mxCell>
                <mxCell id="160" value="01/10/2023" style="rounded=0;whiteSpace=wrap;html=1;" parent="1" vertex="1">
                    <mxGeometry x="533" y="1063" width="120" height="60" as="geometry"/>
                </mxCell>
                <mxCell id="161" value="" style="endArrow=classic;html=1;exitX=0;exitY=0.5;exitDx=0;exitDy=0;" parent="1" source="127" target="148" edge="1">
                    <mxGeometry width="50" height="50" relative="1" as="geometry">
                        <mxPoint x="130" y="930" as="sourcePoint"/>
                        <mxPoint x="620" y="930" as="targetPoint"/>
                    </mxGeometry>
                </mxCell>
                <mxCell id="162" value="" style="endArrow=classic;html=1;" parent="1" source="131" target="160" edge="1">
                    <mxGeometry width="50" height="50" relative="1" as="geometry">
                        <mxPoint x="570" y="1030" as="sourcePoint"/>
                        <mxPoint x="650" y="930" as="targetPoint"/>
                    </mxGeometry>
                </mxCell>
                <mxCell id="163" value="Count number of days between user selected and today's date" style="text;html=1;strokeColor=none;fillColor=none;align=center;verticalAlign=middle;whiteSpace=wrap;rounded=0;" parent="1" vertex="1">
                    <mxGeometry x="560" y="1123" width="170" height="70" as="geometry"/>
                </mxCell>
                <mxCell id="165" value="" style="endArrow=classic;html=1;exitX=0;exitY=0.5;exitDx=0;exitDy=0;" parent="1" source="124" edge="1">
                    <mxGeometry width="50" height="50" relative="1" as="geometry">
                        <mxPoint x="100" y="810" as="sourcePoint"/>
                        <mxPoint x="270" y="920" as="targetPoint"/>
                        <Array as="points">
                            <mxPoint x="40" y="610"/>
                            <mxPoint x="40" y="930"/>
                        </Array>
                    </mxGeometry>
                </mxCell>
                <mxCell id="166" value="We need to restrict the date picker to only select days in the past and not future dates" style="text;html=1;strokeColor=none;fillColor=none;align=center;verticalAlign=middle;whiteSpace=wrap;rounded=0;" parent="1" vertex="1">
                    <mxGeometry x="520" y="890" width="190" height="60" as="geometry"/>
                </mxCell>
                <mxCell id="168" value="Scenario when user clicks on left arrow, they can see another 5 days of historical data" style="text;html=1;strokeColor=none;fillColor=none;align=center;verticalAlign=middle;whiteSpace=wrap;rounded=0;" parent="1" vertex="1">
                    <mxGeometry x="45" y="690" width="130" height="107" as="geometry"/>
                </mxCell>
                <mxCell id="169" value="" style="shape=crossbar;whiteSpace=wrap;html=1;rounded=1;" parent="1" vertex="1">
                    <mxGeometry x="540" y="850" width="120" height="20" as="geometry"/>
                </mxCell>
                <mxCell id="170" value="" style="shape=table;html=1;whiteSpace=wrap;startSize=0;container=1;collapsible=0;childLayout=tableLayout;columnLines=0;rowLines=0;" parent="1" vertex="1">
                    <mxGeometry x="290" y="850" width="220" height="120" as="geometry"/>
                </mxCell>
                <mxCell id="171" value="" style="shape=tableRow;horizontal=0;startSize=0;swimlaneHead=0;swimlaneBody=0;top=0;left=0;bottom=0;right=0;collapsible=0;dropTarget=0;fillColor=none;points=[[0,0.5],[1,0.5]];portConstraint=eastwest;" parent="170" vertex="1">
                    <mxGeometry width="220" height="40" as="geometry"/>
                </mxCell>
                <mxCell id="172" value="01/07/2023" style="shape=partialRectangle;html=1;whiteSpace=wrap;connectable=0;fillColor=none;top=0;left=0;bottom=0;right=0;overflow=hidden;fontSize=12;" parent="171" vertex="1">
                    <mxGeometry width="73" height="40" as="geometry">
                        <mxRectangle width="73" height="40" as="alternateBounds"/>
                    </mxGeometry>
                </mxCell>
                <mxCell id="173" value="" style="shape=partialRectangle;html=1;whiteSpace=wrap;connectable=0;fillColor=none;top=0;left=0;bottom=0;right=0;overflow=hidden;fontSize=12;" parent="171" vertex="1">
                    <mxGeometry x="73" width="77" height="40" as="geometry">
                        <mxRectangle width="77" height="40" as="alternateBounds"/>
                    </mxGeometry>
                </mxCell>
                <mxCell id="174" value="" style="shape=partialRectangle;html=1;whiteSpace=wrap;connectable=0;fillColor=none;top=0;left=0;bottom=0;right=0;overflow=hidden;fontSize=12;" parent="171" vertex="1">
                    <mxGeometry x="150" width="70" height="40" as="geometry">
                        <mxRectangle width="70" height="40" as="alternateBounds"/>
                    </mxGeometry>
                </mxCell>
                <mxCell id="175" value="" style="shape=tableRow;horizontal=0;startSize=0;swimlaneHead=0;swimlaneBody=0;top=0;left=0;bottom=0;right=0;collapsible=0;dropTarget=0;fillColor=none;points=[[0,0.5],[1,0.5]];portConstraint=eastwest;" parent="170" vertex="1">
                    <mxGeometry y="40" width="220" height="40" as="geometry"/>
                </mxCell>
                <mxCell id="176" value="" style="shape=partialRectangle;html=1;whiteSpace=wrap;connectable=0;fillColor=none;top=0;left=0;bottom=0;right=0;overflow=hidden;fontSize=12;" parent="175" vertex="1">
                    <mxGeometry width="73" height="40" as="geometry">
                        <mxRectangle width="73" height="40" as="alternateBounds"/>
                    </mxGeometry>
                </mxCell>
                <mxCell id="177" value="01/10/2023" style="shape=partialRectangle;html=1;whiteSpace=wrap;connectable=0;fillColor=none;top=0;left=0;bottom=0;right=0;overflow=hidden;fontSize=12;" parent="175" vertex="1">
                    <mxGeometry x="73" width="77" height="40" as="geometry">
                        <mxRectangle width="77" height="40" as="alternateBounds"/>
                    </mxGeometry>
                </mxCell>
                <mxCell id="178" value="" style="shape=partialRectangle;html=1;whiteSpace=wrap;connectable=0;fillColor=none;top=0;left=0;bottom=0;right=0;overflow=hidden;fontSize=12;" parent="175" vertex="1">
                    <mxGeometry x="150" width="70" height="40" as="geometry">
                        <mxRectangle width="70" height="40" as="alternateBounds"/>
                    </mxGeometry>
                </mxCell>
                <mxCell id="179" value="" style="shape=tableRow;horizontal=0;startSize=0;swimlaneHead=0;swimlaneBody=0;top=0;left=0;bottom=0;right=0;collapsible=0;dropTarget=0;fillColor=none;points=[[0,0.5],[1,0.5]];portConstraint=eastwest;" parent="170" vertex="1">
                    <mxGeometry y="80" width="220" height="40" as="geometry"/>
                </mxCell>
                <mxCell id="180" value="" style="shape=partialRectangle;html=1;whiteSpace=wrap;connectable=0;fillColor=none;top=0;left=0;bottom=0;right=0;overflow=hidden;fontSize=12;" parent="179" vertex="1">
                    <mxGeometry width="73" height="40" as="geometry">
                        <mxRectangle width="73" height="40" as="alternateBounds"/>
                    </mxGeometry>
                </mxCell>
                <mxCell id="181" value="" style="shape=partialRectangle;html=1;whiteSpace=wrap;connectable=0;fillColor=none;top=0;left=0;bottom=0;right=0;overflow=hidden;fontSize=12;" parent="179" vertex="1">
                    <mxGeometry x="73" width="77" height="40" as="geometry">
                        <mxRectangle width="77" height="40" as="alternateBounds"/>
                    </mxGeometry>
                </mxCell>
                <mxCell id="182" value="" style="shape=partialRectangle;html=1;whiteSpace=wrap;connectable=0;fillColor=none;top=0;left=0;bottom=0;right=0;overflow=hidden;fontSize=12;" parent="179" vertex="1">
                    <mxGeometry x="150" width="70" height="40" as="geometry">
                        <mxRectangle width="70" height="40" as="alternateBounds"/>
                    </mxGeometry>
                </mxCell>
                <mxCell id="183" value="We need to restrict the date picker to only select days in the past and not future dates" style="text;html=1;strokeColor=none;fillColor=none;align=center;verticalAlign=middle;whiteSpace=wrap;rounded=0;" parent="1" vertex="1">
                    <mxGeometry x="520" y="890" width="190" height="60" as="geometry"/>
                </mxCell>
                <mxCell id="184" value="" style="endArrow=classic;html=1;" parent="1" source="175" edge="1">
                    <mxGeometry width="50" height="50" relative="1" as="geometry">
                        <mxPoint x="570" y="1030" as="sourcePoint"/>
                        <mxPoint x="561.360655737705" y="1063" as="targetPoint"/>
                    </mxGeometry>
                </mxCell>
                <mxCell id="185" value="" style="triangle;whiteSpace=wrap;html=1;direction=west;" parent="1" vertex="1">
                    <mxGeometry x="120" y="1000" width="30" height="40" as="geometry"/>
                </mxCell>
                <mxCell id="212" value="" style="shape=crossbar;whiteSpace=wrap;html=1;rounded=1;" parent="1" vertex="1">
                    <mxGeometry x="110" y="780" width="800" height="20" as="geometry"/>
                </mxCell>
                <mxCell id="217" value="Search history" style="rounded=0;whiteSpace=wrap;html=1;" parent="1" vertex="1">
                    <mxGeometry x="850" y="65" width="130" height="35" as="geometry"/>
                </mxCell>
                <mxCell id="218" value="AUD =&amp;gt; BP" style="rounded=0;whiteSpace=wrap;html=1;" parent="1" vertex="1">
                    <mxGeometry x="850" y="100" width="130" height="35" as="geometry"/>
                </mxCell>
                <mxCell id="219" value="USD =&amp;gt; AUD" style="rounded=0;whiteSpace=wrap;html=1;" parent="1" vertex="1">
                    <mxGeometry x="850" y="135" width="130" height="35" as="geometry"/>
                </mxCell>
                <mxCell id="220" value="..." style="rounded=0;whiteSpace=wrap;html=1;" parent="1" vertex="1">
                    <mxGeometry x="850" y="170" width="130" height="35" as="geometry"/>
                </mxCell>
                <mxCell id="221" value="..." style="rounded=0;whiteSpace=wrap;html=1;" parent="1" vertex="1">
                    <mxGeometry x="850" y="205" width="130" height="35" as="geometry"/>
                </mxCell>
                <mxCell id="222" value="GOOGLE MAP&lt;br&gt;Nearby foreign currency location" style="rounded=0;whiteSpace=wrap;html=1;" vertex="1" parent="1">
                    <mxGeometry x="62.5" y="1210" width="867.5" height="190" as="geometry"/>
                </mxCell>
            </root>
        </mxGraphModel>
    </diagram>
</mxfile>